<svg width="12" height="21" viewBox="0 0 12 21" fill="none" xmlns="http://www.w3.org/2000/svg">
<path d="M4.8618 20.3127C5.20919 20.8774 5.79037 20.8883 6.15873 20.3371L10.8737 13.2812C11.242 12.7299 11.259 11.8238 10.9117 11.2591C10.5643 10.6944 9.98309 10.6835 9.61473 11.2347L6.50869 15.8873L6.76601 2.1925C6.78085 1.40241 6.38344 0.756405 5.8767 0.746884C5.36996 0.737362 4.94856 1.36798 4.93371 2.15807L4.67639 15.8528L1.74723 11.0914C1.39985 10.5267 0.818667 10.5157 0.450313 11.067C0.0819592 11.6182 0.064933 12.5244 0.412319 13.0891L4.85886 20.3171L4.8618 20.3127Z" fill="#808080"/>
</svg>
