<svg width="13" height="18" viewBox="0 0 13 18" fill="none" xmlns="http://www.w3.org/2000/svg">
<path d="M1.05828 16.5235C1.0656 17.1865 1.55833 17.4949 2.15781 17.2117L9.83122 13.5874C10.4307 13.3043 10.9115 12.536 10.9042 11.8731C10.8969 11.2101 10.4042 10.9017 9.80468 11.1849L4.74746 13.5762L12.0145 1.96568C12.4337 1.29585 12.4253 0.537433 11.9957 0.268533C11.5661 -0.00036568 10.8803 0.323555 10.461 0.993392L3.19403 12.6039L3.13228 7.0139C3.12496 6.35095 2.63223 6.04256 2.03275 6.3257C1.43326 6.60885 0.952426 7.37708 0.959749 8.04003L1.05348 16.5258L1.05828 16.5235Z" fill="#8A0C0C"/>
</svg>
