<svg width="14" height="17" viewBox="0 0 14 17" fill="none" xmlns="http://www.w3.org/2000/svg">
<path d="M13.2612 1.7405C13.3377 1.08194 12.8879 0.71375 12.2574 0.918871L4.18753 3.54443C3.55707 3.74955 2.98301 4.45086 2.90649 5.10942C2.82998 5.76798 3.27979 6.13617 3.91025 5.93105L9.22911 4.19801L0.553154 14.7971C0.0526178 15.4086 -0.0349115 16.162 0.357284 16.483C0.749479 16.804 1.47072 16.5694 1.97126 15.9579L10.6472 5.35881L10.0021 10.9118C9.92556 11.5703 10.3754 11.9385 11.0058 11.7334C11.6363 11.5283 12.2103 10.827 12.2869 10.1684L13.2662 1.73886L13.2612 1.7405Z" fill="#008000"/>
</svg>
