<svg width="256" height="256" viewBox="0 0 256 256" fill="none" xmlns="http://www.w3.org/2000/svg">
<path fill-rule="evenodd" clip-rule="evenodd" d="M91.75 75.2354C91.75 61.2983 103.062 50 117.016 50H139.984C153.938 50 165.25 61.2983 165.25 75.2354V79.2977C170.506 79.8061 175.73 80.4223 180.921 81.1443C193.296 82.8655 202 93.5793 202 105.703V137.531C202 147.87 195.622 157.642 185.191 160.84C167.258 166.338 148.218 169.295 128.5 169.295C108.782 169.295 89.7424 166.338 71.8086 160.84C61.3783 157.642 55 147.87 55 137.531V105.703C55 93.5793 63.704 82.8655 76.0793 81.1443C81.2701 80.4223 86.4944 79.8061 91.75 79.2977V75.2354ZM151.469 75.2354V78.2177C143.87 77.7611 136.212 77.5295 128.5 77.5295C120.788 77.5295 113.13 77.7611 105.531 78.2177V75.2354C105.531 68.9003 110.673 63.7648 117.016 63.7648H139.984C146.327 63.7648 151.469 68.9003 151.469 75.2354ZM128.5 132.589C123.426 132.589 119.312 136.697 119.312 141.765V141.857C119.312 146.925 123.426 151.033 128.5 151.033H128.592C133.666 151.033 137.779 146.925 137.779 141.857V141.765C137.779 136.697 133.666 132.589 128.592 132.589H128.5Z" fill="#565657"/>
<path d="M64.1875 178.978V172.703C65.3415 173.188 66.5342 173.621 67.7645 173.998C86.994 179.894 107.396 183.059 128.5 183.059C149.604 183.059 170.006 179.894 189.235 173.998C190.466 173.621 191.659 173.188 192.812 172.703V178.978C192.812 191.34 183.766 202.196 171.101 203.62C157.116 205.192 142.901 206 128.5 206C114.099 206 99.884 205.192 85.8985 203.62C73.2336 202.196 64.1875 191.34 64.1875 178.978Z" fill="#565657"/>
</svg>
