<svg width="40" height="40" viewBox="0 0 40 40" fill="none" xmlns="http://www.w3.org/2000/svg">
<circle cx="20" cy="20" r="20" fill="white"/>
<path d="M12.6605 25V16.2727H16.2656C16.919 16.2727 17.483 16.3906 17.9574 16.6264C18.4347 16.8594 18.8026 17.1946 19.0611 17.6321C19.3196 18.0668 19.4489 18.5824 19.4489 19.179C19.4489 19.7841 19.3168 20.2983 19.0526 20.7216C18.7884 21.142 18.4134 21.4631 17.9276 21.6847C17.4418 21.9034 16.8665 22.0128 16.2017 22.0128H13.9219V20.3509H15.8097C16.1278 20.3509 16.3935 20.3097 16.6065 20.2273C16.8224 20.142 16.9858 20.0142 17.0966 19.8438C17.2074 19.6705 17.2628 19.4489 17.2628 19.179C17.2628 18.9091 17.2074 18.6861 17.0966 18.5099C16.9858 18.331 16.8224 18.1974 16.6065 18.1094C16.3906 18.0185 16.125 17.973 15.8097 17.973H14.7699V25H12.6605ZM17.5739 21.0114L19.7472 25H17.446L15.3153 21.0114H17.5739ZM28.0334 16.2727V25H26.2436L22.7706 19.9631H22.7152V25H20.6058V16.2727H22.4212L25.8558 21.3011H25.9283V16.2727H28.0334Z" fill="#0F4C6C"/>
</svg>
