<svg width="513" height="291" viewBox="0 0 513 291" fill="none" xmlns="http://www.w3.org/2000/svg">
<path d="M0.0170468 291V0.0909004H120.188C141.968 0.0909004 160.765 4.02083 176.58 11.8807C192.489 19.6458 204.752 30.8201 213.369 45.4034C221.987 59.892 226.295 77.0795 226.295 96.9659C226.295 117.136 221.892 134.277 213.085 148.386C204.278 162.402 191.778 173.102 175.585 180.489C159.392 187.78 140.216 191.426 118.057 191.426H42.0625V136.028H104.989C115.595 136.028 124.449 134.655 131.551 131.909C138.748 129.068 144.193 124.807 147.886 119.125C151.58 113.348 153.426 105.962 153.426 96.9659C153.426 87.9697 151.58 80.536 147.886 74.6648C144.193 68.6989 138.748 64.2481 131.551 61.3125C124.354 58.2822 115.5 56.767 104.989 56.767H70.3295V291H0.0170468ZM163.795 158.045L236.239 291H159.534L88.5114 158.045H163.795ZM512.446 0.0909004V291H452.787L337.02 123.102H335.173V291H264.861V0.0909004H325.372L439.861 167.705H442.276V0.0909004H512.446Z" fill="#F1F1F1"/>
</svg>
